<?xml version="1.0" encoding="UTF-8"?>
<svg width="41px" height="71px" viewBox="0 0 41 71" version="1.1" xmlns="http://www.w3.org/2000/svg" xmlns:xlink="http://www.w3.org/1999/xlink">
    <!-- Generator: Sketch 51.3 (57544) - http://www.bohemiancoding.com/sketch -->
    <title>BnB-logo</title>
    <desc>Created with Sketch.</desc>
    <defs></defs>
    <g id="Page-1" stroke="none" stroke-width="1" fill="none" fill-rule="evenodd">
        <g id="Home" transform="translate(-119.000000, -23.000000)" fill-rule="nonzero">
            <g id="BnB-logo" transform="translate(119.000000, 23.000000)">
                <path d="M1,10.9052288 L19.8655204,0 L19.89165,0 C19.89165,0 19.9079809,0 19.9079809,0.0196078431 C19.9079809,0.0849673203 19.9079809,0.150326797 19.9079809,0.218954248 C19.9635062,4.46732026 20.02883,21.624183 19.9863695,22 L1,10.9052288" id="Shape" fill="#30AE72"></path>
                <path d="M0,12.0130643 L19,23.0915803 C19,23.1209749 19,23.1307731 19,23.1405714 C19,23.1503696 19,23.1634339 19,23.1666999 L0.255077453,33.9806641 C0.211758304,34.0064453 0.15777698,34.0064453 0.114457831,33.9806641 C0.0784853701,26.6777273 0.0425129088,19.3649922 0.0065404475,12" id="Shape" fill="#090909"></path>
                <path d="M21.1075656,46 C21.0717104,38.6623203 21.0358552,31.3604979 21,24 L40,35.0831234 L21.0945274,45.9902208" id="Shape" fill="#090909"></path>
                <path d="M19,47.0766266 L0.10760254,58 C0.0684743436,50.663406 0.0358675133,43.3626797 0,36 L19,47.0864088" id="Shape" fill="#090909"></path>
                <path d="M40.9777354,59 L22,47.9035804 L40.8667163,37 C40.9222259,37.1863022 41.0430408,58.5718318 40.984266,58.9967315" id="Shape" fill="#090909"></path>
                <path d="M1,59.9070698 L19.8956581,49 C19.9315257,56.3398548 19.9673932,63.6471024 20,71 L1,59.9070698" id="Shape" fill="#090909"></path>
                <path d="M40,60.0913405 L21.1076395,71 C21.0717597,63.6568802 21.0358798,56.3496441 21,49 L40,60.0913405" id="Shape" fill="#090909"></path>
                <path d="M20,45.9869533 L1,34.8972572 L19.8923605,24 C19.9315021,31.3355078 19.9641202,38.6416605 20,46" id="Shape" fill="#090909"></path>
            </g>
        </g>
    </g>
</svg>